<svg width="19" height="19" fill="none" xmlns="http://www.w3.org/2000/svg"><path fill-rule="evenodd" clip-rule="evenodd" d="M7.78 3.533a5.001 5.001 0 017.071 7.071l-4.247 4.248A5.001 5.001 0 013.533 7.78l4.248-4.248zm1.414 1.415L4.948 9.194a3 3 0 004.243 4.243l4.246-4.247a3 3 0 00-4.243-4.243zm-2.123-.705L4.243 7.07l1.414 1.414 2.828-2.828-1.414-1.414zm5.657 5.656L9.9 12.728l1.414 1.414 2.828-2.828-1.414-1.415zM9.906 7.065a.993.993 0 011.408.006 1 1 0 01.006 1.408L8.48 11.32a.993.993 0 01-1.408-.006 1 1 0 01-.006-1.408l2.841-2.841z" fill="#3E4056"/><path fill-rule="evenodd" clip-rule="evenodd" d="M4.243 7.071a.998.998 0 011.414 0 .998.998 0 010 1.414.998.998 0 01-1.414 0 .998.998 0 010-1.414zM9.9 12.728a.998.998 0 011.414 0 .997.997 0 010 1.414.997.997 0 01-1.414 0 .998.998 0 010-1.414zm2.828-2.829a.998.998 0 011.414 0 .998.998 0 010 1.415.998.998 0 01-1.414 0 .998.998 0 010-1.415zM7.07 4.243a.998.998 0 011.414 0 .998.998 0 010 1.414.998.998 0 01-1.414 0 .998.998 0 010-1.414z" fill="#3E4056"/></svg>