<svg width="19" height="19" viewBox="0 0 19 19" fill="none" xmlns="http://www.w3.org/2000/svg">
<path fill-rule="evenodd" clip-rule="evenodd" d="M7.78053 3.53319C9.73186 1.58186 12.9006 1.58689 14.8493 3.53553C16.8019 5.48816 16.7998 8.6561 14.8516 10.6043L10.6043 14.8516C8.65294 16.8029 5.48419 16.7979 3.53555 14.8492C1.58292 12.8966 1.58505 9.72867 3.5332 7.78052L7.78053 3.53319ZM9.19441 4.94773L4.94775 9.1944C3.77711 10.365 3.77819 12.2635 4.94976 13.435C6.11895 14.6042 8.01993 14.6075 9.19039 13.437L13.4371 9.19037C14.6077 8.01974 14.6066 6.12132 13.435 4.94975C12.2659 3.78056 10.3649 3.77727 9.19441 4.94773ZM7.07108 4.24264L4.24265 7.07107L5.65687 8.48528L8.48529 5.65685L7.07108 4.24264ZM12.7279 9.89949L9.89951 12.7279L11.3137 14.1421L14.1421 11.3137L12.7279 9.89949ZM9.90603 7.06455C10.293 6.67762 10.9205 6.67782 11.3137 7.07107C11.7042 7.46159 11.7019 8.09706 11.3202 8.47876L8.47877 11.3202C8.09185 11.7072 7.46433 11.707 7.07108 11.3137C6.68056 10.9232 6.68286 10.2877 7.06456 9.90602L9.90603 7.06455Z" fill="#3E4056"/>
</svg>
