<svg width="19" height="19" viewBox="0 0 19 19" fill="none" xmlns="http://www.w3.org/2000/svg">
<g id="a/icon_link copy">
<g id="Group">
<path id="Combined Shape" fill-rule="evenodd" clip-rule="evenodd" d="M7.78053 3.53319C9.73186 1.58186 12.9006 1.58689 14.8493 3.53553C16.8019 5.48816 16.7998 8.6561 14.8516 10.6043L10.6043 14.8516C8.65294 16.8029 5.48419 16.7979 3.53555 14.8492C1.58292 12.8966 1.58505 9.72867 3.5332 7.78052L7.78053 3.53319ZM9.19441 4.94773L4.94775 9.1944C3.77711 10.365 3.77819 12.2635 4.94976 13.435C6.11895 14.6042 8.01993 14.6075 9.19039 13.437L13.4371 9.19037C14.6077 8.01974 14.6066 6.12132 13.435 4.94975C12.2659 3.78056 10.3649 3.77727 9.19441 4.94773ZM7.07108 4.24264L4.24265 7.07107L5.65687 8.48528L8.48529 5.65685L7.07108 4.24264ZM12.7279 9.89949L9.89951 12.7279L11.3137 14.1421L14.1421 11.3137L12.7279 9.89949ZM9.90603 7.06455C10.293 6.67762 10.9205 6.67782 11.3137 7.07107C11.7042 7.46159 11.7019 8.09706 11.3202 8.47876L8.47877 11.3202C8.09185 11.7072 7.46433 11.707 7.07108 11.3137C6.68056 10.9232 6.68286 10.2877 7.06456 9.90602L9.90603 7.06455Z" fill="#3E4056"/>
<mask id="mask0" mask-type="alpha" maskUnits="userSpaceOnUse" x="2" y="2" width="15" height="15">
<path id="Combined Shape_2" fill-rule="evenodd" clip-rule="evenodd" d="M7.78053 3.53319C9.73186 1.58186 12.9006 1.58689 14.8493 3.53553C16.8019 5.48816 16.7998 8.6561 14.8516 10.6043L10.6043 14.8516C8.65294 16.8029 5.48419 16.7979 3.53555 14.8492C1.58292 12.8966 1.58505 9.72867 3.5332 7.78052L7.78053 3.53319ZM9.19441 4.94773L4.94775 9.1944C3.77711 10.365 3.77819 12.2635 4.94976 13.435C6.11895 14.6042 8.01993 14.6075 9.19039 13.437L13.4371 9.19037C14.6077 8.01974 14.6066 6.12132 13.435 4.94975C12.2659 3.78056 10.3649 3.77727 9.19441 4.94773ZM7.07108 4.24264L4.24265 7.07107L5.65687 8.48528L8.48529 5.65685L7.07108 4.24264ZM12.7279 9.89949L9.89951 12.7279L11.3137 14.1421L14.1421 11.3137L12.7279 9.89949ZM9.90603 7.06455C10.293 6.67762 10.9205 6.67782 11.3137 7.07107C11.7042 7.46159 11.7019 8.09706 11.3202 8.47876L8.47877 11.3202C8.09185 11.7072 7.46433 11.707 7.07108 11.3137C6.68056 10.9232 6.68286 10.2877 7.06456 9.90602L9.90603 7.06455Z" fill="white"/>
</mask>
<g mask="url(#mask0)">
<g id="_/color_red copy">
<rect id="Color" x="1.19238" y="1.19238" width="16" height="16" fill="#3E4056"/>
</g>
</g>
</g>
<path id="Combined Shape_3" fill-rule="evenodd" clip-rule="evenodd" d="M4.24266 7.07106C4.63319 6.68053 5.26363 6.67781 5.65688 7.07106C6.0474 7.46158 6.05012 8.09202 5.65688 8.48527C5.26635 8.87579 4.63591 8.87852 4.24266 8.48527C3.85214 8.09475 3.84942 7.4643 4.24266 7.07106ZM9.89952 12.7279C10.29 12.3374 10.9205 12.3347 11.3137 12.7279C11.7043 13.1184 11.707 13.7489 11.3137 14.1421C10.9232 14.5326 10.2928 14.5354 9.89952 14.1421C9.50899 13.7516 9.50627 13.1212 9.89952 12.7279ZM12.7279 9.89948C13.1185 9.50896 13.7489 9.50624 14.1422 9.89948C14.5327 10.29 14.5354 10.9204 14.1422 11.3137C13.7516 11.7042 13.1212 11.7069 12.7279 11.3137C12.3374 10.9232 12.3347 10.2927 12.7279 9.89948ZM7.07109 4.24263C7.46162 3.8521 8.09206 3.84938 8.48531 4.24263C8.87583 4.63315 8.87855 5.2636 8.48531 5.65684C8.09478 6.04737 7.46434 6.05009 7.07109 5.65684C6.68057 5.26632 6.67784 4.63588 7.07109 4.24263Z" fill="#3E4056"/>
<mask id="mask1" mask-type="alpha" maskUnits="userSpaceOnUse" x="3" y="3" width="12" height="12">
<path id="Combined Shape_4" fill-rule="evenodd" clip-rule="evenodd" d="M4.24266 7.07106C4.63319 6.68053 5.26363 6.67781 5.65688 7.07106C6.0474 7.46158 6.05012 8.09202 5.65688 8.48527C5.26635 8.87579 4.63591 8.87852 4.24266 8.48527C3.85214 8.09475 3.84942 7.4643 4.24266 7.07106ZM9.89952 12.7279C10.29 12.3374 10.9205 12.3347 11.3137 12.7279C11.7043 13.1184 11.707 13.7489 11.3137 14.1421C10.9232 14.5326 10.2928 14.5354 9.89952 14.1421C9.50899 13.7516 9.50627 13.1212 9.89952 12.7279ZM12.7279 9.89948C13.1185 9.50896 13.7489 9.50624 14.1422 9.89948C14.5327 10.29 14.5354 10.9204 14.1422 11.3137C13.7516 11.7042 13.1212 11.7069 12.7279 11.3137C12.3374 10.9232 12.3347 10.2927 12.7279 9.89948ZM7.07109 4.24263C7.46162 3.8521 8.09206 3.84938 8.48531 4.24263C8.87583 4.63315 8.87855 5.2636 8.48531 5.65684C8.09478 6.04737 7.46434 6.05009 7.07109 5.65684C6.68057 5.26632 6.67784 4.63588 7.07109 4.24263Z" fill="white"/>
</mask>
<g mask="url(#mask1)">
</g>
</g>
</svg>
